<svg width="319" height="262" viewBox="0 0 319 262" fill="none" xmlns="http://www.w3.org/2000/svg">
<g clip-path="url(#clip0_3713_5)">
<path d="M76.3405 198.865H80.9103L83.0844 181.24L76.3398 181.241L76.3405 198.865Z" fill="#A0616A"/>
<path d="M75.175 197.373L84.1745 197.373H84.1748C85.6959 197.373 87.1546 197.977 88.2301 199.053C89.3056 200.128 89.9099 201.587 89.91 203.108V203.294L75.1753 203.295L75.175 197.373Z" fill="#2F2E41"/>
<path d="M106.528 198.865H111.097L113.271 181.24L106.527 181.241L106.528 198.865Z" fill="#A0616A"/>
<path d="M105.362 197.373L114.362 197.373H114.362C115.883 197.373 117.342 197.977 118.417 199.053C119.493 200.128 120.097 201.587 120.097 203.108V203.294L105.362 203.295L105.362 197.373Z" fill="#2F2E41"/>
<path d="M218.315 203.322H12.7404V204H218.315V203.322Z" fill="#E6E6E6"/>
<path d="M72.5144 195.043H84.3521L91.9182 128.798L105.829 195.043H113.817V116.048L75.8407 104.684L72.5144 195.043Z" fill="#2F2E41"/>
<path d="M92.6984 46.397C98.3997 46.397 103.022 41.7754 103.022 36.0745C103.022 30.3735 98.3997 25.7519 92.6984 25.7519C86.997 25.7519 82.3751 30.3735 82.3751 36.0745C82.3751 41.7754 86.997 46.397 92.6984 46.397Z" fill="#A0616A"/>
<path d="M76.6724 106.347C87.7493 115.009 99.976 119.375 113.817 117.711C107.971 97.1881 106.237 76.8207 111.876 56.732L100.234 51.4657L87.1473 50.6341L77.6359 53.4314C76.2979 53.8254 75.1265 54.6482 74.3022 55.7732C73.4778 56.8982 73.0461 58.263 73.0736 59.6574C73.4094 76.7894 72.2704 92.8226 76.6724 106.347Z" fill="#E6E6E6"/>
<path d="M82.8183 30.8839C83.8115 29.0102 85.0733 25.276 87.0779 24.5835C88.1911 24.2144 89.3416 23.9693 90.5086 23.8527L93.9158 25.163L92.0614 23.7209C92.4225 23.6994 92.7833 23.6818 93.1439 23.6682L95.4428 24.5523L94.2667 23.6376C96.4099 23.6156 98.6221 23.8384 100.283 25.143C101.699 26.2552 103.101 30.4684 103.328 32.2543C103.57 33.9627 103.486 35.7017 103.078 37.3784L102.496 37.932C102.292 37.465 102.139 36.9777 102.039 36.4782C101.83 35.5449 101.429 34.6653 100.862 33.8955C100.294 33.1256 99.5728 32.4825 98.743 32.007L98.7113 31.9891C97.7349 31.4396 96.5501 31.4649 95.4303 31.5052L90.1122 31.6966C88.8328 31.7426 87.455 31.8236 86.4575 32.6261C85.7838 33.168 85.3801 33.9681 84.9963 34.7428C84.5006 35.7431 83.532 39.5161 83.532 39.5161C83.532 39.5161 82.984 38.8039 82.7214 39.334C82.3002 37.951 82.0441 36.523 81.9585 35.0798C81.8747 33.6301 82.1711 32.1838 82.8183 30.8839Z" fill="#2F2E41"/>
<path d="M298.574 97.5423H179.398C177.36 97.54 175.407 96.7296 173.966 95.2889C172.525 93.8481 171.715 91.8947 171.712 89.8572V7.68518C171.715 5.64764 172.525 3.69422 173.966 2.25347C175.407 0.812714 177.36 0.0022953 179.398 0H298.574C300.612 0.0022953 302.565 0.812714 304.006 2.25347C305.447 3.69422 306.257 5.64764 306.26 7.68518V89.8572C306.257 91.8947 305.447 93.8481 304.006 95.2889C302.565 96.7296 300.612 97.54 298.574 97.5423ZM179.398 0.678313C177.54 0.680418 175.759 1.41931 174.445 2.73289C173.132 4.04648 172.393 5.82748 172.391 7.68518V89.8572C172.393 91.7149 173.132 93.4959 174.445 94.8094C175.759 96.123 177.54 96.8619 179.398 96.864H298.574C300.432 96.8619 302.213 96.123 303.526 94.8094C304.84 93.4959 305.579 91.7149 305.581 89.8572V7.68518C305.579 5.82748 304.84 4.04648 303.526 2.73289C302.213 1.41931 300.432 0.680418 298.574 0.678313H179.398Z" fill="#F0F0F0"/>
<path d="M159.163 104.441V22.2693C159.165 20.3217 159.94 18.4544 161.317 17.0773C162.694 15.7001 164.562 14.9254 166.509 14.9232H285.685C287.633 14.9254 289.5 15.7001 290.877 17.0773C292.255 18.4544 293.029 20.3217 293.032 22.2693V104.441C293.029 106.389 292.255 108.256 290.877 109.633C289.5 111.01 287.633 111.785 285.685 111.787H166.509C164.562 111.785 162.694 111.01 161.317 109.633C159.94 108.256 159.165 106.389 159.163 104.441Z" fill="#E4E4E4"/>
<path d="M163.85 104.585V22.1241C163.851 21.5238 164.089 20.9482 164.514 20.5236C164.939 20.0991 165.514 19.8603 166.115 19.8596H286.08C286.68 19.8603 287.256 20.0991 287.68 20.5236C288.105 20.9482 288.344 21.5238 288.344 22.1241V104.585C288.344 105.186 288.105 105.761 287.68 106.186C287.256 106.61 286.68 106.849 286.08 106.85H166.115C165.514 106.849 164.939 106.61 164.514 106.186C164.089 105.761 163.851 105.186 163.85 104.585Z" fill="#F4F4F4"/>
<path d="M212.085 184.686C213.929 184.686 215.424 183.192 215.424 181.348C215.424 179.504 213.929 178.01 212.085 178.01C210.241 178.01 208.747 179.504 208.747 181.348C208.747 183.192 210.241 184.686 212.085 184.686Z" fill="#E6E6E6"/>
<path d="M225.996 184.686C227.84 184.686 229.334 183.192 229.334 181.348C229.334 179.504 227.84 178.01 225.996 178.01C224.152 178.01 222.657 179.504 222.657 181.348C222.657 183.192 224.152 184.686 225.996 184.686Z" fill="#E6E6E6"/>
<path d="M239.906 184.686C241.75 184.686 243.245 183.192 243.245 181.348C243.245 179.504 241.75 178.01 239.906 178.01C238.063 178.01 236.568 179.504 236.568 181.348C236.568 183.192 238.063 184.686 239.906 184.686Z" fill="#E6E6E6"/>
<path d="M226.097 87.5914C221.303 87.5914 216.617 86.17 212.631 83.5069C208.645 80.8438 205.539 77.0586 203.704 72.63C201.87 68.2013 201.39 63.3282 202.325 58.6268C203.26 53.9254 205.569 49.6069 208.958 46.2174C212.348 42.8279 216.667 40.5196 221.369 39.5844C226.07 38.6492 230.944 39.1292 235.373 40.9636C239.801 42.798 243.587 45.9044 246.25 49.8901C248.914 53.8757 250.335 58.5616 250.335 63.3551V63.3551C250.328 69.7807 247.772 75.9411 243.228 80.4848C238.684 85.0284 232.523 87.5842 226.097 87.5914Z" fill="#16ABF8"/>
<path d="M235.661 60.9642H228.488V53.7919C228.487 53.1585 228.235 52.5515 227.786 52.104C227.338 51.6565 226.731 51.4051 226.097 51.4051C225.464 51.4051 224.856 51.6565 224.408 52.104C223.96 52.5515 223.707 53.1585 223.706 53.7919V60.9642H216.533C215.9 60.9653 215.293 61.2177 214.845 61.6659C214.398 62.1141 214.146 62.7216 214.146 63.355C214.146 63.9884 214.398 64.5958 214.845 65.0441C215.293 65.4923 215.9 65.7447 216.533 65.7458H223.706V72.9181C223.707 73.5514 223.96 74.1585 224.408 74.606C224.856 75.0535 225.464 75.3048 226.097 75.3048C226.731 75.3048 227.338 75.0535 227.786 74.606C228.235 74.1585 228.487 73.5514 228.488 72.9181V65.7458H235.661C235.975 65.7465 236.286 65.6853 236.577 65.5657C236.867 65.4461 237.131 65.2704 237.354 65.0487C237.576 64.8269 237.753 64.5635 237.874 64.2735C237.995 63.9834 238.057 63.6725 238.057 63.3583C238.058 63.0442 237.996 62.733 237.876 62.4426C237.756 62.1522 237.581 61.8884 237.359 61.666C237.137 61.4437 236.873 61.2673 236.583 61.1468C236.293 61.0264 235.982 60.9644 235.667 60.9642H235.661Z" fill="#F4F4F4"/>
<path d="M49.5167 183.083C48.9895 179.684 47.961 176.383 46.4648 173.286L46.2466 172.835L44.6266 174.631L45.827 171.956L45.7485 171.8C44.6892 169.704 43.5153 167.667 42.232 165.699L41.994 165.335L41.6765 165.687L41.8988 165.191L41.7875 165.024C40.1981 162.64 38.977 161.133 38.9649 161.118L38.6196 160.693L38.3975 161.199C38.3568 161.292 34.3209 170.591 33.7863 179.781L33.7778 179.924L36.4941 183.207L33.724 181.468L33.7288 182.099C33.7372 183.179 33.8107 184.258 33.9489 185.329C34.0709 186.25 34.2145 187.15 34.3797 188.027C34.6415 188.035 34.8962 188.115 35.1162 188.257C34.9249 187.276 34.7599 186.268 34.6212 185.233C34.5142 184.407 34.4468 183.567 34.4199 182.73L39.7779 186.094L34.4719 179.68C34.955 171.911 37.9535 164.084 38.7953 162.018C39.2471 162.604 40.0994 163.741 41.1189 165.261L39.2655 169.392L41.9079 166.463C43.0535 168.246 44.1087 170.085 45.0696 171.974L42.2156 178.336L46.0744 174.058C47.4223 176.956 48.3552 180.029 48.8458 183.188C49.5212 188.289 49.3894 193.19 48.4745 196.987C47.5983 200.624 46.0539 202.86 44.2373 203.121C43.8634 203.173 43.483 203.15 43.1178 203.055C42.825 203.263 42.4727 203.37 42.1136 203.361H42.0145C42.5781 203.674 43.2097 203.844 43.8541 203.855C44.0133 203.855 44.1724 203.844 44.3299 203.821C46.4657 203.514 48.1714 201.148 49.1324 197.159C50.0679 193.276 50.2048 188.28 49.5167 183.083Z" fill="#E6E6E6"/>
<path d="M43.5391 203.587C40.7453 203.587 36.7173 202.05 32.722 199.253C32.1339 198.837 31.5724 198.386 31.0407 197.901L30.5932 197.492L32.2851 197.005L30.0322 196.922L29.9372 196.823C25.7143 192.4 23.0865 186.154 23.0603 186.092L22.855 185.598L23.3889 185.622C23.4421 185.625 24.7115 185.685 26.6194 185.955L26.7383 185.972V185.971L27.1567 186.035C28.7146 186.271 30.258 186.596 31.7795 187.006L31.9419 187.05L32.4495 188.3L32.3725 187.179L32.8383 187.313C35.0456 187.951 37.1421 188.922 39.0546 190.195C45.1305 194.45 48.4925 199.767 46.7153 202.305C46.1078 203.172 44.9896 203.586 43.5391 203.587ZM31.9585 197.805C32.3296 198.119 32.7158 198.418 33.112 198.697C38.6768 202.594 44.6519 204.068 46.1595 201.916C47.6667 199.764 44.2378 194.653 38.6722 190.756C36.9551 189.613 35.0844 188.721 33.1161 188.105L33.4171 192.486L31.4403 187.618C30.1384 187.272 28.8065 186.988 27.4731 186.771L27.6916 189.951L26.331 186.6C25.2769 186.455 24.4271 186.376 23.9103 186.336C24.6149 187.884 26.9435 192.662 30.3331 196.255L36.5503 196.482L31.9585 197.805Z" fill="#E6E6E6"/>
<path d="M83.1651 113.114C83.1627 112.597 83.0469 112.086 82.8259 111.618C82.6049 111.151 82.284 110.737 81.8858 110.407C81.4877 110.077 81.022 109.838 80.5215 109.707C80.021 109.576 79.4979 109.557 78.9891 109.65L72.7938 98.7081L70.2375 103.947L76.1583 114.024C76.3716 114.869 76.8871 115.606 77.6074 116.095C78.3276 116.585 79.2025 116.793 80.0662 116.681C80.9299 116.569 81.7224 116.144 82.2935 115.486C82.8647 114.829 83.1748 113.985 83.1651 113.114V113.114Z" fill="#A0616A"/>
<path d="M110.867 125.277C110.622 124.822 110.48 124.318 110.452 123.801C110.423 123.285 110.508 122.768 110.7 122.288C110.893 121.808 111.188 121.376 111.566 121.022C111.944 120.669 112.394 120.402 112.886 120.242L113.115 107.67L118.503 111.366L117.46 122.738C117.675 123.581 117.573 124.475 117.173 125.249C116.774 126.023 116.104 126.623 115.291 126.936C114.479 127.249 113.579 127.253 112.764 126.947C111.948 126.642 111.273 126.048 110.867 125.277H110.867Z" fill="#A0616A"/>
<path d="M73.346 111.613L77.7811 107.455L75.505 85.0038L78.1384 53.2671C72.418 55.0648 66.2758 59.894 65.2641 65.8039L61.6453 86.944L73.346 111.613Z" fill="#E6E6E6"/>
<path opacity="0.2" d="M75.921 72.9466L72.3173 87.3598L77.7811 107.812L74.2577 88.4685L75.921 72.9466Z" fill="black"/>
<path d="M111.599 119.373L118.806 120.205L117.119 66.6912C117.043 64.3001 116.281 61.9813 114.922 60.0119C113.564 58.0425 111.667 56.5059 109.459 55.5858L106.887 54.5141L107.58 79.5986L111.599 119.373Z" fill="#E6E6E6"/>
<path opacity="0.2" d="M108.901 80.4192L111.682 111.304L106.972 80.6346L108.901 80.4192Z" fill="black"/>
</g>
<path d="M63.5572 251.272C64.1865 251.389 64.7039 251.704 65.1092 252.216C65.5145 252.728 65.7172 253.315 65.7172 253.976C65.7172 254.573 65.5679 255.101 65.2692 255.56C64.9812 256.008 64.5599 256.36 64.0052 256.616C63.4505 256.872 62.7945 257 62.0372 257H57.2212V245.832H61.8292C62.5865 245.832 63.2372 245.955 63.7812 246.2C64.3359 246.445 64.7519 246.787 65.0292 247.224C65.3172 247.661 65.4612 248.157 65.4612 248.712C65.4612 249.363 65.2852 249.907 64.9332 250.344C64.5919 250.781 64.1332 251.091 63.5572 251.272ZM59.4612 250.44H61.5092C62.0425 250.44 62.4532 250.323 62.7412 250.088C63.0292 249.843 63.1732 249.496 63.1732 249.048C63.1732 248.6 63.0292 248.253 62.7412 248.008C62.4532 247.763 62.0425 247.64 61.5092 247.64H59.4612V250.44ZM61.7172 255.176C62.2612 255.176 62.6825 255.048 62.9812 254.792C63.2905 254.536 63.4452 254.173 63.4452 253.704C63.4452 253.224 63.2852 252.851 62.9652 252.584C62.6452 252.307 62.2132 252.168 61.6692 252.168H59.4612V255.176H61.7172ZM75.8704 248.136V257H73.6144V255.88C73.3264 256.264 72.9478 256.568 72.4784 256.792C72.0198 257.005 71.5184 257.112 70.9744 257.112C70.2811 257.112 69.6678 256.968 69.1344 256.68C68.6011 256.381 68.1798 255.949 67.8704 255.384C67.5718 254.808 67.4224 254.125 67.4224 253.336V248.136H69.6624V253.016C69.6624 253.72 69.8384 254.264 70.1904 254.648C70.5424 255.021 71.0224 255.208 71.6304 255.208C72.2491 255.208 72.7344 255.021 73.0864 254.648C73.4384 254.264 73.6144 253.72 73.6144 253.016V248.136H75.8704ZM77.5046 252.536C77.5046 251.64 77.6806 250.845 78.0326 250.152C78.3952 249.459 78.8806 248.925 79.4886 248.552C80.1072 248.179 80.7952 247.992 81.5526 247.992C82.2139 247.992 82.7899 248.125 83.2806 248.392C83.7819 248.659 84.1819 248.995 84.4806 249.4V248.136H86.7366V257H84.4806V255.704C84.1926 256.12 83.7926 256.467 83.2806 256.744C82.7792 257.011 82.1979 257.144 81.5366 257.144C80.7899 257.144 80.1072 256.952 79.4886 256.568C78.8806 256.184 78.3952 255.645 78.0326 254.952C77.6806 254.248 77.5046 253.443 77.5046 252.536ZM84.4806 252.568C84.4806 252.024 84.3739 251.56 84.1606 251.176C83.9472 250.781 83.6592 250.483 83.2966 250.28C82.9339 250.067 82.5446 249.96 82.1286 249.96C81.7126 249.96 81.3286 250.061 80.9766 250.264C80.6246 250.467 80.3366 250.765 80.1126 251.16C79.8992 251.544 79.7926 252.003 79.7926 252.536C79.7926 253.069 79.8992 253.539 80.1126 253.944C80.3366 254.339 80.6246 254.643 80.9766 254.856C81.3392 255.069 81.7232 255.176 82.1286 255.176C82.5446 255.176 82.9339 255.075 83.2966 254.872C83.6592 254.659 83.9472 254.36 84.1606 253.976C84.3739 253.581 84.4806 253.112 84.4806 252.568ZM91.5323 249.976V254.264C91.5323 254.563 91.6016 254.781 91.7403 254.92C91.8896 255.048 92.135 255.112 92.4763 255.112H93.5163V257H92.1083C90.2203 257 89.2763 256.083 89.2763 254.248V249.976H88.2203V248.136H89.2763V245.944H91.5323V248.136H93.5163V249.976H91.5323ZM98.3639 252.536C98.3639 251.64 98.5399 250.845 98.8919 250.152C99.2546 249.459 99.7399 248.925 100.348 248.552C100.967 248.179 101.655 247.992 102.412 247.992C103.073 247.992 103.649 248.125 104.14 248.392C104.641 248.659 105.041 248.995 105.34 249.4V248.136H107.596V257H105.34V255.704C105.052 256.12 104.652 256.467 104.14 256.744C103.639 257.011 103.057 257.144 102.396 257.144C101.649 257.144 100.967 256.952 100.348 256.568C99.7399 256.184 99.2546 255.645 98.8919 254.952C98.5399 254.248 98.3639 253.443 98.3639 252.536ZM105.34 252.568C105.34 252.024 105.233 251.56 105.02 251.176C104.807 250.781 104.519 250.483 104.156 250.28C103.793 250.067 103.404 249.96 102.988 249.96C102.572 249.96 102.188 250.061 101.836 250.264C101.484 250.467 101.196 250.765 100.972 251.16C100.759 251.544 100.652 252.003 100.652 252.536C100.652 253.069 100.759 253.539 100.972 253.944C101.196 254.339 101.484 254.643 101.836 254.856C102.199 255.069 102.583 255.176 102.988 255.176C103.404 255.176 103.793 255.075 104.156 254.872C104.519 254.659 104.807 254.36 105.02 253.976C105.233 253.581 105.34 253.112 105.34 252.568ZM109.208 252.568C109.208 251.651 109.394 250.851 109.768 250.168C110.141 249.475 110.658 248.941 111.32 248.568C111.981 248.184 112.738 247.992 113.592 247.992C114.69 247.992 115.597 248.269 116.312 248.824C117.037 249.368 117.522 250.136 117.768 251.128H115.352C115.224 250.744 115.005 250.445 114.696 250.232C114.397 250.008 114.024 249.896 113.576 249.896C112.936 249.896 112.429 250.131 112.056 250.6C111.682 251.059 111.496 251.715 111.496 252.568C111.496 253.411 111.682 254.067 112.056 254.536C112.429 254.995 112.936 255.224 113.576 255.224C114.482 255.224 115.074 254.819 115.352 254.008H117.768C117.522 254.968 117.037 255.731 116.312 256.296C115.586 256.861 114.68 257.144 113.592 257.144C112.738 257.144 111.981 256.957 111.32 256.584C110.658 256.2 110.141 255.667 109.768 254.984C109.394 254.291 109.208 253.485 109.208 252.568ZM122.017 249.976V254.264C122.017 254.563 122.086 254.781 122.225 254.92C122.374 255.048 122.619 255.112 122.961 255.112H124.001V257H122.593C120.705 257 119.761 256.083 119.761 254.248V249.976H118.705V248.136H119.761V245.944H122.017V248.136H124.001V249.976H122.017ZM126.748 247.08C126.353 247.08 126.022 246.957 125.756 246.712C125.5 246.456 125.372 246.141 125.372 245.768C125.372 245.395 125.5 245.085 125.756 244.84C126.022 244.584 126.353 244.456 126.748 244.456C127.142 244.456 127.468 244.584 127.724 244.84C127.99 245.085 128.124 245.395 128.124 245.768C128.124 246.141 127.99 246.456 127.724 246.712C127.468 246.957 127.142 247.08 126.748 247.08ZM127.852 248.136V257H125.612V248.136H127.852ZM133.761 254.936L136.001 248.136H138.385L135.105 257H132.385L129.121 248.136H131.521L133.761 254.936ZM140.779 247.08C140.384 247.08 140.054 246.957 139.787 246.712C139.531 246.456 139.403 246.141 139.403 245.768C139.403 245.395 139.531 245.085 139.787 244.84C140.054 244.584 140.384 244.456 140.779 244.456C141.174 244.456 141.499 244.584 141.755 244.84C142.022 245.085 142.155 245.395 142.155 245.768C142.155 246.141 142.022 246.456 141.755 246.712C141.499 246.957 141.174 247.08 140.779 247.08ZM141.883 248.136V257H139.643V248.136H141.883ZM146.704 249.976V254.264C146.704 254.563 146.774 254.781 146.912 254.92C147.062 255.048 147.307 255.112 147.648 255.112H148.688V257H147.28C145.392 257 144.448 256.083 144.448 254.248V249.976H143.392V248.136H144.448V245.944H146.704V248.136H148.688V249.976H146.704ZM158.779 248.136L153.291 261.192H150.907L152.827 256.776L149.275 248.136H151.787L154.075 254.328L156.395 248.136H158.779ZM166.039 249.416C166.327 249.011 166.722 248.675 167.223 248.408C167.735 248.131 168.317 247.992 168.967 247.992C169.725 247.992 170.407 248.179 171.015 248.552C171.634 248.925 172.119 249.459 172.471 250.152C172.834 250.835 173.015 251.629 173.015 252.536C173.015 253.443 172.834 254.248 172.471 254.952C172.119 255.645 171.634 256.184 171.015 256.568C170.407 256.952 169.725 257.144 168.967 257.144C168.317 257.144 167.741 257.011 167.239 256.744C166.749 256.477 166.349 256.141 166.039 255.736V261.224H163.799V248.136H166.039V249.416ZM170.727 252.536C170.727 252.003 170.615 251.544 170.391 251.16C170.178 250.765 169.89 250.467 169.527 250.264C169.175 250.061 168.791 249.96 168.375 249.96C167.97 249.96 167.586 250.067 167.223 250.28C166.871 250.483 166.583 250.781 166.359 251.176C166.146 251.571 166.039 252.035 166.039 252.568C166.039 253.101 166.146 253.565 166.359 253.96C166.583 254.355 166.871 254.659 167.223 254.872C167.586 255.075 167.97 255.176 168.375 255.176C168.791 255.176 169.175 255.069 169.527 254.856C169.89 254.643 170.178 254.339 170.391 253.944C170.615 253.549 170.727 253.08 170.727 252.536ZM182.883 252.376C182.883 252.696 182.862 252.984 182.819 253.24H176.339C176.392 253.88 176.616 254.381 177.011 254.744C177.406 255.107 177.891 255.288 178.467 255.288C179.299 255.288 179.891 254.931 180.243 254.216H182.659C182.403 255.069 181.912 255.773 181.187 256.328C180.462 256.872 179.571 257.144 178.515 257.144C177.662 257.144 176.894 256.957 176.211 256.584C175.539 256.2 175.011 255.661 174.627 254.968C174.254 254.275 174.067 253.475 174.067 252.568C174.067 251.651 174.254 250.845 174.627 250.152C175 249.459 175.523 248.925 176.195 248.552C176.867 248.179 177.64 247.992 178.515 247.992C179.358 247.992 180.11 248.173 180.771 248.536C181.443 248.899 181.96 249.416 182.323 250.088C182.696 250.749 182.883 251.512 182.883 252.376ZM180.563 251.736C180.552 251.16 180.344 250.701 179.939 250.36C179.534 250.008 179.038 249.832 178.451 249.832C177.896 249.832 177.427 250.003 177.043 250.344C176.67 250.675 176.44 251.139 176.355 251.736H180.563ZM186.758 249.512C187.046 249.043 187.419 248.675 187.878 248.408C188.347 248.141 188.881 248.008 189.478 248.008V250.36H188.886C188.182 250.36 187.649 250.525 187.286 250.856C186.934 251.187 186.758 251.763 186.758 252.584V257H184.518V248.136H186.758V249.512ZM193.595 249.976V254.264C193.595 254.563 193.664 254.781 193.803 254.92C193.952 255.048 194.197 255.112 194.539 255.112H195.579V257H194.171C192.283 257 191.339 256.083 191.339 254.248V249.976H190.283V248.136H191.339V245.944H193.595V248.136H195.579V249.976H193.595ZM196.614 252.536C196.614 251.64 196.79 250.845 197.142 250.152C197.505 249.459 197.99 248.925 198.598 248.552C199.217 248.179 199.905 247.992 200.662 247.992C201.323 247.992 201.899 248.125 202.39 248.392C202.891 248.659 203.291 248.995 203.59 249.4V248.136H205.846V257H203.59V255.704C203.302 256.12 202.902 256.467 202.39 256.744C201.889 257.011 201.307 257.144 200.646 257.144C199.899 257.144 199.217 256.952 198.598 256.568C197.99 256.184 197.505 255.645 197.142 254.952C196.79 254.248 196.614 253.443 196.614 252.536ZM203.59 252.568C203.59 252.024 203.483 251.56 203.27 251.176C203.057 250.781 202.769 250.483 202.406 250.28C202.043 250.067 201.654 249.96 201.238 249.96C200.822 249.96 200.438 250.061 200.086 250.264C199.734 250.467 199.446 250.765 199.222 251.16C199.009 251.544 198.902 252.003 198.902 252.536C198.902 253.069 199.009 253.539 199.222 253.944C199.446 254.339 199.734 254.643 200.086 254.856C200.449 255.069 200.833 255.176 201.238 255.176C201.654 255.176 202.043 255.075 202.406 254.872C202.769 254.659 203.057 254.36 203.27 253.976C203.483 253.581 203.59 253.112 203.59 252.568ZM219.042 248.008C220.13 248.008 221.004 248.344 221.666 249.016C222.338 249.677 222.674 250.605 222.674 251.8V257H220.434V252.104C220.434 251.411 220.258 250.883 219.906 250.52C219.554 250.147 219.074 249.96 218.466 249.96C217.858 249.96 217.372 250.147 217.01 250.52C216.658 250.883 216.482 251.411 216.482 252.104V257H214.242V252.104C214.242 251.411 214.066 250.883 213.714 250.52C213.362 250.147 212.882 249.96 212.274 249.96C211.655 249.96 211.164 250.147 210.802 250.52C210.45 250.883 210.274 251.411 210.274 252.104V257H208.034V248.136H210.274V249.208C210.562 248.835 210.93 248.541 211.378 248.328C211.836 248.115 212.338 248.008 212.882 248.008C213.575 248.008 214.194 248.157 214.738 248.456C215.282 248.744 215.703 249.16 216.002 249.704C216.29 249.192 216.706 248.781 217.25 248.472C217.804 248.163 218.402 248.008 219.042 248.008ZM224.223 252.536C224.223 251.64 224.399 250.845 224.751 250.152C225.114 249.459 225.599 248.925 226.207 248.552C226.826 248.179 227.514 247.992 228.271 247.992C228.933 247.992 229.509 248.125 229.999 248.392C230.501 248.659 230.901 248.995 231.199 249.4V248.136H233.455V257H231.199V255.704C230.911 256.12 230.511 256.467 229.999 256.744C229.498 257.011 228.917 257.144 228.255 257.144C227.509 257.144 226.826 256.952 226.207 256.568C225.599 256.184 225.114 255.645 224.751 254.952C224.399 254.248 224.223 253.443 224.223 252.536ZM231.199 252.568C231.199 252.024 231.093 251.56 230.879 251.176C230.666 250.781 230.378 250.483 230.015 250.28C229.653 250.067 229.263 249.96 228.847 249.96C228.431 249.96 228.047 250.061 227.695 250.264C227.343 250.467 227.055 250.765 226.831 251.16C226.618 251.544 226.511 252.003 226.511 252.536C226.511 253.069 226.618 253.539 226.831 253.944C227.055 254.339 227.343 254.643 227.695 254.856C228.058 255.069 228.442 255.176 228.847 255.176C229.263 255.176 229.653 255.075 230.015 254.872C230.378 254.659 230.666 254.36 230.879 253.976C231.093 253.581 231.199 253.112 231.199 252.568ZM246.651 248.008C247.739 248.008 248.614 248.344 249.275 249.016C249.947 249.677 250.283 250.605 250.283 251.8V257H248.043V252.104C248.043 251.411 247.867 250.883 247.515 250.52C247.163 250.147 246.683 249.96 246.075 249.96C245.467 249.96 244.982 250.147 244.619 250.52C244.267 250.883 244.091 251.411 244.091 252.104V257H241.851V252.104C241.851 251.411 241.675 250.883 241.323 250.52C240.971 250.147 240.491 249.96 239.883 249.96C239.264 249.96 238.774 250.147 238.411 250.52C238.059 250.883 237.883 251.411 237.883 252.104V257H235.643V248.136H237.883V249.208C238.171 248.835 238.539 248.541 238.987 248.328C239.446 248.115 239.947 248.008 240.491 248.008C241.184 248.008 241.803 248.157 242.347 248.456C242.891 248.744 243.312 249.16 243.611 249.704C243.899 249.192 244.315 248.781 244.859 248.472C245.414 248.163 246.011 248.008 246.651 248.008ZM260.777 248.136V257H258.521V255.88C258.233 256.264 257.854 256.568 257.385 256.792C256.926 257.005 256.425 257.112 255.881 257.112C255.187 257.112 254.574 256.968 254.041 256.68C253.507 256.381 253.086 255.949 252.777 255.384C252.478 254.808 252.329 254.125 252.329 253.336V248.136H254.569V253.016C254.569 253.72 254.745 254.264 255.097 254.648C255.449 255.021 255.929 255.208 256.537 255.208C257.155 255.208 257.641 255.021 257.993 254.648C258.345 254.264 258.521 253.72 258.521 253.016V248.136H260.777Z" fill="#555555"/>
<defs>
<clipPath id="clip0_3713_5">
<rect width="319" height="204" fill="white"/>
</clipPath>
</defs>
</svg>
