<svg width="320" height="288" viewBox="0 0 320 288" fill="none" xmlns="http://www.w3.org/2000/svg">
<g clip-path="url(#clip0_0_1)">
<path d="M124.614 23.6356H287.659C288.079 23.6356 288.448 23.6622 288.702 23.7017C288.716 23.7039 288.729 23.706 288.742 23.7082V56.9698C288.729 56.972 288.716 56.9742 288.702 56.9763C288.448 57.0158 288.079 57.0424 287.659 57.0424H124.614C124.195 57.0424 123.826 57.0158 123.572 56.9763C123.558 56.9742 123.544 56.972 123.531 56.9698V23.7082C123.544 23.706 123.558 23.7039 123.572 23.7017C123.826 23.6622 124.195 23.6356 124.614 23.6356ZM288.953 23.7582C288.953 23.7582 288.952 23.7578 288.95 23.757C288.952 23.7578 288.953 23.7582 288.953 23.7582ZM123.32 56.9198C123.32 56.9198 123.321 56.9202 123.323 56.9211C123.321 56.9203 123.32 56.9199 123.32 56.9198ZM123.32 23.7582C123.32 23.7582 123.321 23.7577 123.323 23.757C123.321 23.7578 123.32 23.7582 123.32 23.7582Z" fill="white" stroke="#CACACA"/>
<path d="M124.614 62.7881H287.659C288.079 62.7881 288.448 62.8147 288.702 62.8541C288.716 62.8563 288.729 62.8585 288.742 62.8607V96.1223C288.729 96.1244 288.716 96.1266 288.702 96.1288C288.448 96.1682 288.079 96.1949 287.659 96.1949H124.614C124.195 96.1949 123.826 96.1682 123.572 96.1288C123.558 96.1266 123.544 96.1244 123.531 96.1223V62.8607C123.544 62.8585 123.558 62.8563 123.572 62.8541C123.826 62.8147 124.195 62.7881 124.614 62.7881ZM288.953 62.9106C288.953 62.9107 288.952 62.9103 288.95 62.9094C288.952 62.9102 288.953 62.9106 288.953 62.9106ZM123.32 96.0723C123.32 96.0723 123.321 96.0727 123.323 96.0735C123.321 96.0727 123.32 96.0723 123.32 96.0723ZM123.32 62.9106C123.32 62.9106 123.321 62.9102 123.323 62.9094C123.321 62.9103 123.32 62.9107 123.32 62.9106Z" fill="white" stroke="#CACACA"/>
<path d="M124.614 104.907H287.659C288.079 104.907 288.448 104.933 288.702 104.973C288.716 104.975 288.729 104.977 288.742 104.979V138.241C288.729 138.243 288.716 138.245 288.702 138.247C288.448 138.287 288.079 138.314 287.659 138.314H124.614C124.195 138.314 123.826 138.287 123.572 138.247C123.558 138.245 123.544 138.243 123.531 138.241V104.979C123.544 104.977 123.558 104.975 123.572 104.973C123.826 104.933 124.195 104.907 124.614 104.907ZM288.953 105.029C288.953 105.029 288.952 105.029 288.95 105.028C288.952 105.029 288.953 105.029 288.953 105.029ZM123.32 138.191C123.32 138.191 123.321 138.191 123.323 138.192C123.321 138.191 123.32 138.191 123.32 138.191ZM123.32 105.029C123.32 105.029 123.321 105.029 123.323 105.028C123.321 105.029 123.32 105.029 123.32 105.029Z" fill="white" stroke="#CACACA"/>
<path d="M270.09 43.3228H153.798C153.012 43.3228 152.257 43.0094 151.701 42.4515C151.144 41.8936 150.832 41.1369 150.832 40.3479C150.832 39.5589 151.144 38.8022 151.701 38.2443C152.257 37.6864 153.012 37.3729 153.798 37.3729H270.09C270.877 37.3729 271.632 37.6864 272.188 38.2443C272.744 38.8022 273.057 39.5589 273.057 40.3479C273.057 41.1369 272.744 41.8936 272.188 42.4515C271.632 43.0094 270.877 43.3228 270.09 43.3228Z" fill="#E6E6E6"/>
<path d="M270.09 82.4753H153.798C153.012 82.4753 152.257 82.1619 151.701 81.604C151.144 81.046 150.832 80.2893 150.832 79.5003C150.832 78.7113 151.144 77.9547 151.701 77.3967C152.257 76.8388 153.012 76.5254 153.798 76.5254H270.09C270.877 76.5254 271.632 76.8388 272.188 77.3967C272.744 77.9547 273.057 78.7113 273.057 79.5003C273.057 80.2893 272.744 81.046 272.188 81.604C271.632 82.1619 270.877 82.4753 270.09 82.4753Z" fill="#E6E6E6"/>
<path d="M270.09 124.594H153.798C153.012 124.594 152.257 124.281 151.701 123.723C151.144 123.165 150.832 122.408 150.832 121.619C150.832 120.83 151.144 120.073 151.701 119.515C152.257 118.957 153.012 118.644 153.798 118.644H270.09C270.877 118.644 271.632 118.957 272.188 119.515C272.744 120.073 273.057 120.83 273.057 121.619C273.057 122.408 272.744 123.165 272.188 123.723C271.632 124.281 270.877 124.594 270.09 124.594Z" fill="#E6E6E6"/>
<path d="M289.05 45.742C301.646 45.742 311.857 35.5023 311.857 22.871C311.857 10.2397 301.646 0 289.05 0C276.454 0 266.243 10.2397 266.243 22.871C266.243 35.5023 276.454 45.742 289.05 45.742Z" fill="#16ABF8"/>
<path d="M279.548 21.3613C279.148 21.3613 278.766 21.5204 278.483 21.8034C278.201 22.0864 278.042 22.4703 278.042 22.8706C278.042 23.2709 278.201 23.6548 278.483 23.9379C278.766 24.2209 279.148 24.3799 279.548 24.3799H287.546V32.4C287.546 32.7996 287.705 33.1826 287.988 33.4648C288.27 33.7471 288.652 33.9056 289.05 33.9056C289.449 33.9056 289.831 33.7471 290.113 33.4648C290.395 33.1826 290.554 32.7996 290.555 32.4V24.3799H298.553C298.952 24.3799 299.335 24.2209 299.618 23.9379C299.9 23.6548 300.058 23.2709 300.058 22.8706C300.058 22.4703 299.9 22.0864 299.618 21.8034C299.335 21.5204 298.952 21.3613 298.553 21.3613H290.555V13.3409C290.555 12.9406 290.397 12.5568 290.115 12.2738C289.832 11.9908 289.45 11.8318 289.05 11.8318C288.651 11.8318 288.269 11.9908 287.986 12.2738C287.704 12.5568 287.546 12.9406 287.546 13.3409V21.3613H279.548Z" fill="white"/>
<path d="M320 244.207H0V245H320V244.207Z" fill="#CACACA"/>
<path d="M267.395 226.118C268.867 226.637 270.447 226.767 271.983 226.495C273.519 226.224 274.96 225.56 276.166 224.569C279.238 221.983 280.201 217.723 280.985 213.779L283.303 202.112L278.451 205.462C274.961 207.872 271.392 210.359 268.975 213.85C266.559 217.34 265.504 222.105 267.446 225.882" fill="#E6E6E6"/>
<path d="M268.145 241.055C267.532 236.592 266.905 232.073 267.334 227.562C267.715 223.555 268.934 219.643 271.415 216.435C272.732 214.735 274.334 213.279 276.15 212.132C276.625 211.832 277.06 212.585 276.588 212.883C273.446 214.874 271.016 217.815 269.648 221.281C268.137 225.135 267.894 229.337 268.154 233.431C268.313 235.907 268.646 238.367 268.982 240.824C269.008 240.935 268.992 241.052 268.936 241.151C268.879 241.251 268.788 241.325 268.679 241.359C268.568 241.389 268.45 241.374 268.35 241.318C268.25 241.261 268.176 241.166 268.145 241.055H268.145Z" fill="#F2F2F2"/>
<path d="M264.682 234.389C263.932 235.277 262.968 235.956 261.88 236.361C260.793 236.767 259.62 236.884 258.474 236.703C255.533 236.203 253.317 233.833 251.335 231.598L245.471 224.988L249.842 225.307C252.984 225.537 256.207 225.787 259.066 227.115C261.926 228.443 264.39 231.101 264.561 234.257" fill="#E6E6E6"/>
<path d="M269.714 243.607C268.683 241.12 267.644 238.598 266.063 236.401C264.707 234.411 262.813 232.85 260.604 231.9C259.413 231.422 258.147 231.157 256.864 231.116C256.53 231.105 256.532 231.626 256.864 231.637C259.086 231.711 261.226 232.491 262.977 233.864C264.919 235.393 266.311 237.487 267.411 239.677C268.076 241.002 268.646 242.372 269.213 243.741C269.233 243.806 269.277 243.861 269.335 243.896C269.394 243.93 269.463 243.94 269.53 243.925C269.596 243.907 269.652 243.864 269.687 243.804C269.721 243.744 269.731 243.673 269.714 243.607V243.607Z" fill="#F2F2F2"/>
<path d="M272.541 233.895C273.172 234.857 274.04 235.64 275.06 236.168C276.081 236.696 277.22 236.952 278.367 236.91C281.316 236.77 283.775 234.705 285.988 232.745L292.534 226.949L288.202 226.741C285.086 226.592 281.89 226.452 278.922 227.415C275.955 228.379 273.218 230.698 272.675 233.778" fill="#E6E6E6"/>
<path d="M266.418 243.621C269.358 238.403 272.769 232.604 278.864 230.75C280.559 230.237 282.336 230.052 284.099 230.208C284.655 230.256 284.516 231.115 283.961 231.067C281.005 230.821 278.055 231.604 275.607 233.284C273.252 234.892 271.417 237.127 269.865 239.498C268.916 240.95 268.062 242.464 267.21 243.975C266.938 244.458 266.142 244.11 266.418 243.621Z" fill="#F2F2F2"/>
<path d="M312.335 235.488C311.199 235.889 309.98 235.989 308.794 235.78C307.609 235.57 306.497 235.058 305.566 234.293C303.195 232.297 302.452 229.01 301.848 225.966L300.059 216.962L303.805 219.548C306.498 221.408 309.252 223.327 311.117 226.02C312.981 228.714 313.796 232.392 312.297 235.306" fill="#E6E6E6"/>
<path d="M311.301 244.035C311.631 241.628 311.969 239.191 311.738 236.759C311.588 234.59 310.825 232.509 309.538 230.759C308.828 229.843 307.963 229.057 306.984 228.439C306.729 228.277 306.494 228.683 306.747 228.844C308.441 229.918 309.752 231.503 310.489 233.372C311.304 235.451 311.435 237.716 311.295 239.924C311.21 241.259 311.03 242.585 310.849 243.91C310.834 243.97 310.843 244.033 310.874 244.086C310.904 244.14 310.953 244.18 311.012 244.198C311.072 244.214 311.135 244.206 311.189 244.175C311.243 244.144 311.283 244.094 311.3 244.034L311.301 244.035Z" fill="#F2F2F2"/>
<ellipse cx="140.185" cy="40.339" rx="2.95749" ry="2.9661" fill="#E5E5E5"/>
<ellipse cx="140.185" cy="79.4915" rx="2.95749" ry="2.9661" fill="#E5E5E5"/>
<ellipse cx="140.185" cy="121.61" rx="2.95749" ry="2.9661" fill="#E5E5E5"/>
<path d="M130.479 106.259C130.08 105.627 129.555 105.089 128.938 104.68C128.321 104.27 127.627 103.999 126.9 103.883C126.173 103.767 125.431 103.81 124.722 104.008C124.012 104.206 123.352 104.555 122.783 105.032C122.604 105.184 122.435 105.348 122.279 105.525L101.762 102.471L100.62 86.6961C100.532 85.4859 99.9784 84.3608 99.0797 83.5682C98.1809 82.7757 97.011 82.3807 95.8274 82.4701C94.6438 82.5595 93.5434 83.1259 92.7683 84.0449C91.9932 84.9638 91.6068 86.1599 91.6942 87.3701C91.6963 87.3982 91.6985 87.4262 91.7011 87.4543L93.7011 109.589L93.7107 109.638C93.971 110.489 94.4926 111.231 95.1982 111.755C95.9038 112.279 96.7558 112.556 97.6276 112.545L121.76 112.119C121.854 112.266 121.955 112.407 122.063 112.542C122.53 113.123 123.111 113.597 123.77 113.932C124.428 114.267 125.148 114.456 125.883 114.487C126.618 114.518 127.351 114.389 128.033 114.11C128.716 113.831 129.334 113.408 129.846 112.868C129.95 112.759 130.048 112.647 130.141 112.531C130.836 111.655 131.244 110.577 131.304 109.451C131.365 108.324 131.077 107.207 130.479 106.259V106.259Z" fill="#FFB7B7"/>
<path d="M89.3169 238.475L94.9279 238.474L97.597 215.339L89.3161 215.339L89.3169 238.475Z" fill="#FFB7B7"/>
<path d="M87.5419 243.814L106.469 243.813V243.57C106.469 241.589 105.693 239.69 104.312 238.289C102.93 236.889 101.056 236.102 99.1023 236.102H99.1019L87.5416 236.102L87.5419 243.814Z" fill="#2F2E41"/>
<path d="M47.9113 233.036L53.6324 234.915L63.8817 214.554L55.4374 211.78L47.9113 233.036Z" fill="#FFB7B7"/>
<path d="M44.9538 237.822L62.8198 243.814L62.8969 243.591C63.5258 241.778 63.3964 239.793 62.5372 238.074C61.6779 236.354 60.1592 235.041 58.315 234.422L58.3146 234.422L47.4026 230.763L44.9538 237.822Z" fill="#2F2E41"/>
<path d="M82.7427 39.8985C82.7427 39.8985 88.5238 37.9538 92.2401 45.7326C95.9565 53.5114 101.738 62.068 101.738 62.068L98.4341 62.8459C98.4341 62.8459 97.6083 57.4008 95.5436 56.6229L96.3694 63.6238C96.3694 63.6238 71.5935 71.7915 60.4443 62.8459L60.8573 60.1233C60.8573 60.1233 59.2055 60.5123 59.2055 62.8459L57.9668 61.6791C57.9668 61.6791 59.2055 59.3455 62.922 56.234C65.3612 54.1917 66.1995 50.3063 66.4875 47.8771C66.716 45.8205 67.5818 43.8915 68.9594 42.37C71.4291 39.674 75.9293 36.8086 82.7427 39.8985Z" fill="#2F2E41"/>
<path d="M80.4436 67.0339C74.5635 67.0339 69.7967 62.2532 69.7967 56.3559C69.7967 50.4587 74.5635 45.678 80.4436 45.678C86.3238 45.678 91.0906 50.4587 91.0906 56.3559C91.0906 62.2532 86.3238 67.0339 80.4436 67.0339Z" fill="#FFB7B7"/>
<path d="M94.5738 75.9896L96.5455 75.339C96.5455 75.339 100.489 76.9656 100.489 79.8934C100.489 82.8212 101.146 94.5325 101.146 94.5325L92.2735 95.5085L94.5738 75.9896Z" fill="#CBCBCB"/>
<path d="M60.1874 139.474C60.9779 138.573 61.4241 137.413 61.4449 136.205C61.4657 134.998 61.0597 133.823 60.3007 132.894L65.6512 87.3149C65.7036 86.2401 65.3346 85.188 64.6253 84.3896C63.9159 83.5912 62.9241 83.1117 61.8675 83.0563C60.811 83.0009 59.7759 83.3742 58.9896 84.0942C58.2033 84.8142 57.73 85.8222 57.6735 86.8968C57.6727 86.9117 57.6721 86.9266 57.6715 86.9414L52.8849 132.569C52.7114 132.746 52.5514 132.937 52.4065 133.139C52.0226 133.679 51.747 134.291 51.5954 134.939C51.4439 135.587 51.4194 136.26 51.5234 136.918C51.6273 137.576 51.8576 138.206 52.2012 138.774C52.5447 139.341 52.9948 139.834 53.5257 140.225C53.5808 140.265 53.6366 140.305 53.6932 140.343C54.3079 140.757 55.005 141.027 55.7345 141.134C56.464 141.242 57.2078 141.183 57.9126 140.963C58.7925 140.692 59.5805 140.176 60.1874 139.474Z" fill="#FFB7B7"/>
<path d="M65.0647 94.3221L56.1922 93.3461C56.1922 93.3461 56.8495 81.6348 56.8495 78.707C56.8495 75.7791 60.7928 74.1526 60.7928 74.1526L62.7644 74.8032L65.0647 94.3221Z" fill="#CBCBCB"/>
<path d="M93.6088 110.345C93.6088 110.345 101.087 124.005 101.087 140.572C101.087 157.14 101.738 233.154 101.738 233.154C101.738 233.154 91.983 237.702 86.1303 232.18L80.9279 148.044L60.4434 230.556C60.4434 230.556 50.6889 232.505 46.1368 229.256L54.9159 171.758C54.9159 171.758 58.4925 117.833 68.247 113.935C78.0015 110.037 93.6088 110.345 93.6088 110.345Z" fill="#2F2E41"/>
<path d="M91.8871 56.3559C88.0967 53.6763 85.0284 50.5898 82.9987 46.9184C82.9987 46.9184 76.0426 54.4684 71.7916 54.8459C67.5407 55.2234 71.4052 45.7859 71.4052 45.7859L79.1342 43.8983L86.4768 44.6533L92.2736 48.4284L91.8871 56.3559Z" fill="#2F2E41"/>
<path d="M69.9786 72.3908C69.9786 72.3908 69.6753 72.2267 87.8136 72.8926L95.4051 74.9998L96.4141 75.2799C96.4141 75.2799 95.4586 94.5403 92.9106 98.0714C90.3626 101.602 90.9996 103.529 91.6366 103.85C92.2736 104.171 93.8661 103.529 92.9106 105.134C91.9551 106.739 90.6811 105.776 91.9551 106.739C93.2291 107.702 93.8661 111.233 93.8661 111.233L65.8382 115.085C65.8382 115.085 64.8827 102.566 62.3347 96.1454C59.7867 89.7252 59.1497 87.1571 59.1497 87.1571L61.0607 74.3169L69.9786 72.3908Z" fill="#CBCBCB"/>
</g>
<path d="M87.4947 281.272C88.124 281.389 88.6414 281.704 89.0467 282.216C89.452 282.728 89.6547 283.315 89.6547 283.976C89.6547 284.573 89.5054 285.101 89.2067 285.56C88.9187 286.008 88.4974 286.36 87.9427 286.616C87.388 286.872 86.732 287 85.9747 287H81.1587V275.832H85.7667C86.524 275.832 87.1747 275.955 87.7187 276.2C88.2734 276.445 88.6894 276.787 88.9667 277.224C89.2547 277.661 89.3987 278.157 89.3987 278.712C89.3987 279.363 89.2227 279.907 88.8707 280.344C88.5294 280.781 88.0707 281.091 87.4947 281.272ZM83.3987 280.44H85.4467C85.98 280.44 86.3907 280.323 86.6787 280.088C86.9667 279.843 87.1107 279.496 87.1107 279.048C87.1107 278.6 86.9667 278.253 86.6787 278.008C86.3907 277.763 85.98 277.64 85.4467 277.64H83.3987V280.44ZM85.6547 285.176C86.1987 285.176 86.62 285.048 86.9187 284.792C87.228 284.536 87.3827 284.173 87.3827 283.704C87.3827 283.224 87.2227 282.851 86.9027 282.584C86.5827 282.307 86.1507 282.168 85.6067 282.168H83.3987V285.176H85.6547ZM99.8079 278.136V287H97.5519V285.88C97.2639 286.264 96.8853 286.568 96.4159 286.792C95.9573 287.005 95.4559 287.112 94.9119 287.112C94.2186 287.112 93.6053 286.968 93.0719 286.68C92.5386 286.381 92.1173 285.949 91.8079 285.384C91.5093 284.808 91.3599 284.125 91.3599 283.336V278.136H93.5999V283.016C93.5999 283.72 93.7759 284.264 94.1279 284.648C94.4799 285.021 94.9599 285.208 95.5679 285.208C96.1866 285.208 96.6719 285.021 97.0239 284.648C97.3759 284.264 97.5519 283.72 97.5519 283.016V278.136H99.8079ZM101.442 282.536C101.442 281.64 101.618 280.845 101.97 280.152C102.333 279.459 102.818 278.925 103.426 278.552C104.045 278.179 104.733 277.992 105.49 277.992C106.151 277.992 106.727 278.125 107.218 278.392C107.719 278.659 108.119 278.995 108.418 279.4V278.136H110.674V287H108.418V285.704C108.13 286.12 107.73 286.467 107.218 286.744C106.717 287.011 106.135 287.144 105.474 287.144C104.727 287.144 104.045 286.952 103.426 286.568C102.818 286.184 102.333 285.645 101.97 284.952C101.618 284.248 101.442 283.443 101.442 282.536ZM108.418 282.568C108.418 282.024 108.311 281.56 108.098 281.176C107.885 280.781 107.597 280.483 107.234 280.28C106.871 280.067 106.482 279.96 106.066 279.96C105.65 279.96 105.266 280.061 104.914 280.264C104.562 280.467 104.274 280.765 104.05 281.16C103.837 281.544 103.73 282.003 103.73 282.536C103.73 283.069 103.837 283.539 104.05 283.944C104.274 284.339 104.562 284.643 104.914 284.856C105.277 285.069 105.661 285.176 106.066 285.176C106.482 285.176 106.871 285.075 107.234 284.872C107.597 284.659 107.885 284.36 108.098 283.976C108.311 283.581 108.418 283.112 108.418 282.568ZM115.47 279.976V284.264C115.47 284.563 115.539 284.781 115.678 284.92C115.827 285.048 116.072 285.112 116.414 285.112H117.454V287H116.046C114.158 287 113.214 286.083 113.214 284.248V279.976H112.158V278.136H113.214V275.944H115.47V278.136H117.454V279.976H115.47ZM125.117 285.224H128.797V287H122.877V275.832H125.117V285.224ZM131.357 277.08C130.963 277.08 130.632 276.957 130.365 276.712C130.109 276.456 129.981 276.141 129.981 275.768C129.981 275.395 130.109 275.085 130.365 274.84C130.632 274.584 130.963 274.456 131.357 274.456C131.752 274.456 132.077 274.584 132.333 274.84C132.6 275.085 132.733 275.395 132.733 275.768C132.733 276.141 132.6 276.456 132.333 276.712C132.077 276.957 131.752 277.08 131.357 277.08ZM132.461 278.136V287H130.221V278.136H132.461ZM138.066 287.144C137.341 287.144 136.69 287.016 136.114 286.76C135.538 286.493 135.08 286.136 134.738 285.688C134.408 285.24 134.226 284.744 134.194 284.2H136.45C136.493 284.541 136.658 284.824 136.946 285.048C137.245 285.272 137.613 285.384 138.05 285.384C138.477 285.384 138.808 285.299 139.042 285.128C139.288 284.957 139.41 284.739 139.41 284.472C139.41 284.184 139.261 283.971 138.962 283.832C138.674 283.683 138.21 283.523 137.57 283.352C136.909 283.192 136.365 283.027 135.938 282.856C135.522 282.685 135.16 282.424 134.85 282.072C134.552 281.72 134.402 281.245 134.402 280.648C134.402 280.157 134.541 279.709 134.818 279.304C135.106 278.899 135.512 278.579 136.034 278.344C136.568 278.109 137.192 277.992 137.906 277.992C138.962 277.992 139.805 278.259 140.434 278.792C141.064 279.315 141.41 280.024 141.474 280.92H139.33C139.298 280.568 139.149 280.291 138.882 280.088C138.626 279.875 138.28 279.768 137.842 279.768C137.437 279.768 137.122 279.843 136.898 279.992C136.685 280.141 136.578 280.349 136.578 280.616C136.578 280.915 136.728 281.144 137.026 281.304C137.325 281.453 137.789 281.608 138.418 281.768C139.058 281.928 139.586 282.093 140.002 282.264C140.418 282.435 140.776 282.701 141.074 283.064C141.384 283.416 141.544 283.885 141.554 284.472C141.554 284.984 141.41 285.443 141.122 285.848C140.845 286.253 140.44 286.573 139.906 286.808C139.384 287.032 138.77 287.144 138.066 287.144ZM146.001 279.976V284.264C146.001 284.563 146.07 284.781 146.209 284.92C146.358 285.048 146.604 285.112 146.945 285.112H147.985V287H146.577C144.689 287 143.745 286.083 143.745 284.248V279.976H142.689V278.136H143.745V275.944H146.001V278.136H147.985V279.976H146.001ZM155.649 275.832V287H153.409V275.832H155.649ZM160.47 279.976V284.264C160.47 284.563 160.539 284.781 160.678 284.92C160.827 285.048 161.072 285.112 161.414 285.112H162.454V287H161.046C159.158 287 158.214 286.083 158.214 284.248V279.976H157.158V278.136H158.214V275.944H160.47V278.136H162.454V279.976H160.47ZM172.305 282.376C172.305 282.696 172.284 282.984 172.241 283.24H165.761C165.814 283.88 166.038 284.381 166.433 284.744C166.828 285.107 167.313 285.288 167.889 285.288C168.721 285.288 169.313 284.931 169.665 284.216H172.081C171.825 285.069 171.334 285.773 170.609 286.328C169.884 286.872 168.993 287.144 167.937 287.144C167.084 287.144 166.316 286.957 165.633 286.584C164.961 286.2 164.433 285.661 164.049 284.968C163.676 284.275 163.489 283.475 163.489 282.568C163.489 281.651 163.676 280.845 164.049 280.152C164.422 279.459 164.945 278.925 165.617 278.552C166.289 278.179 167.062 277.992 167.937 277.992C168.78 277.992 169.532 278.173 170.193 278.536C170.865 278.899 171.382 279.416 171.745 280.088C172.118 280.749 172.305 281.512 172.305 282.376ZM169.985 281.736C169.974 281.16 169.766 280.701 169.361 280.36C168.956 280.008 168.46 279.832 167.873 279.832C167.318 279.832 166.849 280.003 166.465 280.344C166.092 280.675 165.862 281.139 165.777 281.736H169.985ZM184.948 278.008C186.036 278.008 186.911 278.344 187.572 279.016C188.244 279.677 188.58 280.605 188.58 281.8V287H186.34V282.104C186.34 281.411 186.164 280.883 185.812 280.52C185.46 280.147 184.98 279.96 184.372 279.96C183.764 279.96 183.279 280.147 182.916 280.52C182.564 280.883 182.388 281.411 182.388 282.104V287H180.148V282.104C180.148 281.411 179.972 280.883 179.62 280.52C179.268 280.147 178.788 279.96 178.18 279.96C177.561 279.96 177.071 280.147 176.708 280.52C176.356 280.883 176.18 281.411 176.18 282.104V287H173.94V278.136H176.18V279.208C176.468 278.835 176.836 278.541 177.284 278.328C177.743 278.115 178.244 278.008 178.788 278.008C179.481 278.008 180.1 278.157 180.644 278.456C181.188 278.744 181.609 279.16 181.908 279.704C182.196 279.192 182.612 278.781 183.156 278.472C183.711 278.163 184.308 278.008 184.948 278.008ZM199.766 287L196.758 283.224V287H194.518V275.16H196.758V281.896L199.734 278.136H202.646L198.742 282.584L202.678 287H199.766ZM203.286 282.536C203.286 281.64 203.462 280.845 203.814 280.152C204.176 279.459 204.662 278.925 205.27 278.552C205.888 278.179 206.576 277.992 207.334 277.992C207.995 277.992 208.571 278.125 209.062 278.392C209.563 278.659 209.963 278.995 210.262 279.4V278.136H212.518V287H210.262V285.704C209.974 286.12 209.574 286.467 209.062 286.744C208.56 287.011 207.979 287.144 207.318 287.144C206.571 287.144 205.888 286.952 205.27 286.568C204.662 286.184 204.176 285.645 203.814 284.952C203.462 284.248 203.286 283.443 203.286 282.536ZM210.262 282.568C210.262 282.024 210.155 281.56 209.942 281.176C209.728 280.781 209.44 280.483 209.078 280.28C208.715 280.067 208.326 279.96 207.91 279.96C207.494 279.96 207.11 280.061 206.758 280.264C206.406 280.467 206.118 280.765 205.894 281.16C205.68 281.544 205.574 282.003 205.574 282.536C205.574 283.069 205.68 283.539 205.894 283.944C206.118 284.339 206.406 284.643 206.758 284.856C207.12 285.069 207.504 285.176 207.91 285.176C208.326 285.176 208.715 285.075 209.078 284.872C209.44 284.659 209.728 284.36 209.942 283.976C210.155 283.581 210.262 283.112 210.262 282.568ZM225.714 278.008C226.802 278.008 227.676 278.344 228.338 279.016C229.01 279.677 229.346 280.605 229.346 281.8V287H227.106V282.104C227.106 281.411 226.93 280.883 226.578 280.52C226.226 280.147 225.746 279.96 225.138 279.96C224.53 279.96 224.044 280.147 223.682 280.52C223.33 280.883 223.154 281.411 223.154 282.104V287H220.914V282.104C220.914 281.411 220.738 280.883 220.386 280.52C220.034 280.147 219.554 279.96 218.946 279.96C218.327 279.96 217.836 280.147 217.474 280.52C217.122 280.883 216.946 281.411 216.946 282.104V287H214.706V278.136H216.946V279.208C217.234 278.835 217.602 278.541 218.05 278.328C218.508 278.115 219.01 278.008 219.554 278.008C220.247 278.008 220.866 278.157 221.41 278.456C221.954 278.744 222.375 279.16 222.674 279.704C222.962 279.192 223.378 278.781 223.922 278.472C224.476 278.163 225.074 278.008 225.714 278.008ZM239.839 278.136V287H237.583V285.88C237.295 286.264 236.917 286.568 236.447 286.792C235.989 287.005 235.487 287.112 234.943 287.112C234.25 287.112 233.637 286.968 233.103 286.68C232.57 286.381 232.149 285.949 231.839 285.384C231.541 284.808 231.391 284.125 231.391 283.336V278.136H233.631V283.016C233.631 283.72 233.807 284.264 234.159 284.648C234.511 285.021 234.991 285.208 235.599 285.208C236.218 285.208 236.703 285.021 237.055 284.648C237.407 284.264 237.583 283.72 237.583 283.016V278.136H239.839Z" fill="#555555"/>
<defs>
<clipPath id="clip0_0_1">
<rect width="320" height="245" fill="white"/>
</clipPath>
</defs>
</svg>
